<?xml version="1.0" encoding="iso-8859-1"?>
<!-- Generator: Adobe Illustrator 19.0.0, SVG Export Plug-In . SVG Version: 6.00 Build 0)  -->
<svg version="1.1" id="Capa_1" xmlns="http://www.w3.org/2000/svg" xmlns:xlink="http://www.w3.org/1999/xlink" x="0px" y="0px"
	 viewBox="0 0 512 512" style="enable-background:new 0 0 512 512;" xml:space="preserve">
    <g>
        <g>
            <path d="M418.88,344.021L364.011,324.928C360,323.563 355.542,324.651 352.64,327.787C325.739,357.163 291.413,373.334 256,373.334C220.587,373.334 186.261,357.163 159.36,327.809C156.48,324.673 152,323.585 147.989,324.95L93.12,344.043C37.419,363.392 0,416.021 0,475.008L0,490.667C0,496.555 4.779,501.334 10.667,501.334L501.334,501.334C507.222,501.334 512.001,496.555 512.001,490.667L512.001,475.008C512,416.021 474.581,363.392 418.88,344.021Z" style="fill:white;fill-rule:nonzero;"/>
        </g>
    </g>
    <g>
        <g>
            <g>
                <path d="M224,181.333L202.667,181.333C196.779,181.333 192,186.112 192,192C192,197.888 196.779,202.667 202.667,202.667L224,202.667C229.888,202.667 234.667,197.888 234.667,192C234.667,186.112 229.888,181.333 224,181.333Z" style="fill:white;fill-rule:nonzero;"/>
            </g>
            <g>
                <path d="M309.333,181.333L288,181.333C282.112,181.333 277.333,186.112 277.333,192C277.333,197.888 282.112,202.667 288,202.667L309.333,202.667C315.221,202.667 320,197.888 320,192C320,186.112 315.221,181.333 309.333,181.333Z" style="fill:white;fill-rule:nonzero;"/>
            </g>
            <g>
                <path d="M369.643,222.229C363.883,220.8 358.144,224.277 356.715,230.016C341.781,290.219 301.312,330.667 256,330.667C210.688,330.667 170.219,290.219 155.285,230.016C153.856,224.277 148.053,220.8 142.357,222.229C136.64,223.637 133.162,229.44 134.57,235.157C151.915,305.045 200.704,352 256,352C311.296,352 360.085,305.045 377.429,235.157C378.837,229.44 375.36,223.637 369.643,222.229Z" style="fill:white;fill-rule:nonzero;"/>
            </g>
            <g>
                <path d="M336.576,236.437C331.627,233.173 325.056,234.496 321.792,239.402L306.795,261.909C304.811,264.896 301.483,266.666 297.92,266.666L293.995,266.666C289.088,266.666 284.843,263.338 283.136,257.066L276.501,241.215C274.837,237.247 270.976,234.666 266.666,234.666L245.333,234.666C241.024,234.666 237.162,237.247 235.477,241.237L228.352,258.602C227.157,263.359 222.912,266.687 218.005,266.687L214.08,266.687C210.517,266.687 207.189,264.916 205.205,261.93L190.208,239.423C186.944,234.495 180.331,233.194 175.424,236.458C170.517,239.722 169.195,246.335 172.459,251.242L187.456,273.749C193.408,282.667 203.371,288 214.08,288L218.005,288C232.725,288 245.482,278.037 248.554,265.301L252.437,256L259.626,256L262.954,263.765C266.517,278.037 279.295,288 293.994,288L297.919,288C308.628,288 318.591,282.667 324.543,273.728L339.54,251.221C342.805,246.315 341.483,239.701 336.576,236.437Z" style="fill:white;fill-rule:nonzero;"/>
            </g>
            <g>
                <path d="M222.784,229.717C220.032,224.512 213.632,222.464 208.384,225.216C200.811,229.184 176.085,234.667 149.333,234.667C143.445,234.667 138.666,239.446 138.666,245.334C138.666,251.222 143.445,256 149.333,256C179.37,256 207.274,249.877 218.282,244.117C223.509,241.387 225.515,234.944 222.784,229.717Z" style="fill:white;fill-rule:nonzero;"/>
            </g>
            <g>
                <path d="M362.667,234.667C335.915,234.667 311.19,229.184 303.616,225.216C298.389,222.464 291.947,224.512 289.216,229.717C286.485,234.944 288.491,241.386 293.717,244.117C304.725,249.877 332.629,256 362.666,256C368.554,256 373.333,251.221 373.333,245.333C373.333,239.445 368.555,234.667 362.667,234.667Z" style="fill:white;fill-rule:nonzero;"/>
            </g>
            <g>
                <path d="M241.643,151.915C232.747,144.235 187.158,107.094 163.136,131.115C158.976,135.275 158.976,142.038 163.136,146.198C167.296,150.358 174.059,150.358 178.219,146.198C185.152,139.307 211.712,154.283 227.712,168.065C229.739,169.814 232.192,170.668 234.667,170.668C237.654,170.668 240.64,169.409 242.752,166.956C246.592,162.496 246.101,155.776 241.643,151.915Z" style="fill:white;fill-rule:nonzero;"/>
            </g>
            <path d="M348.864,131.136C324.864,107.157 279.253,144.256 270.357,151.936C265.898,155.797 265.408,162.517 269.248,166.976C271.36,169.408 274.325,170.667 277.333,170.667C279.808,170.667 282.282,169.814 284.288,168.086C300.309,154.283 326.912,139.35 333.781,146.219C337.941,150.379 344.704,150.379 348.864,146.219C353.024,142.059 353.024,135.296 348.864,131.136Z" style="fill:white;fill-rule:nonzero;"/>
            <g>
                <path d="M268.416,288.128C262.592,287.083 257.109,291.093 256.149,296.896L256,297.771L255.851,296.918C254.891,291.115 249.366,287.105 243.584,288.15C237.781,289.11 233.856,294.614 234.816,300.417L245.483,364.417C246.336,369.558 250.774,373.334 256,373.334C261.226,373.334 265.664,369.558 266.517,364.395L277.184,300.395C278.165,294.592 274.219,289.088 268.416,288.128Z" style="fill:white;fill-rule:nonzero;"/>
            </g>
        </g>
    </g>
    <g>
        <g>
            <path d="M256,10.667C185.493,10.667 130.261,66.902 130.261,138.667C130.261,144.555 135.04,149.334 140.928,149.334C146.816,149.334 151.595,144.555 151.595,138.667C151.595,78.848 197.44,32 256,32C314.56,32 360.405,78.848 360.405,138.667C360.405,144.555 365.184,149.334 371.072,149.334C376.96,149.334 381.739,144.555 381.739,138.667C381.739,66.901 326.507,10.667 256,10.667Z" style="fill:white;fill-rule:nonzero;"/>
        </g>
    </g>
    <g>
        <g>
            <path d="M377.877,75.669C332.288,54.272 259.2,53.355 255.915,53.333C252.822,53.354 179.734,54.272 134.144,75.669C130.24,77.504 127.829,81.493 128,85.781L134.272,233.024C134.528,238.933 139.669,243.627 145.387,243.243C151.275,242.987 155.84,238.016 155.584,232.128L149.632,92.203C191.467,75.478 255.424,74.667 255.893,74.667C256.576,74.667 320.512,75.478 362.368,92.203L356.416,232.128C356.16,238.016 360.725,242.987 366.613,243.243L367.082,243.243C372.757,243.243 377.493,238.763 377.749,233.024L384,85.781C384.171,81.493 381.76,77.504 377.877,75.669Z" style="fill:white;fill-rule:nonzero;"/>
        </g>
    </g>
    <g>
        <g>
            <path d="M363.989,72.853C341.269,33.92 300.885,10.667 256,10.667C211.115,10.667 170.731,33.92 148.011,72.853C145.771,76.65 146.134,81.45 148.886,84.885C151.638,88.341 156.246,89.749 160.427,88.405C201.75,75.349 255.552,74.666 255.894,74.666C256.427,74.666 310.166,75.327 351.574,88.405C352.619,88.746 353.707,88.896 354.774,88.896C357.953,88.896 361.046,87.467 363.115,84.885C365.867,81.451 366.229,76.651 363.989,72.853Z" style="fill:white;fill-rule:nonzero;"/>
        </g>
    </g>
</svg>
